<?xml version="1.0" encoding="UTF-8" standalone="no"?>
<!-- Created with Inkscape (http://www.inkscape.org/) -->

<svg
   xmlns:dc="http://purl.org/dc/elements/1.1/"
   xmlns:cc="http://creativecommons.org/ns#"
   xmlns:rdf="http://www.w3.org/1999/02/22-rdf-syntax-ns#"
   xmlns:svg="http://www.w3.org/2000/svg"
   xmlns="http://www.w3.org/2000/svg"
   xmlns:sodipodi="http://sodipodi.sourceforge.net/DTD/sodipodi-0.dtd"
   xmlns:inkscape="http://www.inkscape.org/namespaces/inkscape"
   width="975.47"
   height="115.68"
   version="1.1"
   viewBox="0 0 975.47 115.68"
   id="svg74"
   sodipodi:docname="ESLogoSVGColor.svg"
   inkscape:version="0.92.4 5da689c313, 2019-01-14">
  <defs
     id="defs78" />
  <sodipodi:namedview
     pagecolor="#ffffff"
     bordercolor="#666666"
     borderopacity="1"
     objecttolerance="10"
     gridtolerance="10"
     guidetolerance="10"
     inkscape:pageopacity="0"
     inkscape:pageshadow="2"
     inkscape:window-width="953"
     inkscape:window-height="1051"
     id="namedview76"
     showgrid="false"
     inkscape:zoom="0.062277673"
     inkscape:cx="-5189.6799"
     inkscape:cy="-418.25413"
     inkscape:window-x="2011"
     inkscape:window-y="302"
     inkscape:window-maximized="0"
     inkscape:current-layer="svg74" />
  <metadata
     id="metadata2">
    <rdf:RDF>
      <cc:Work
         rdf:about="">
        <dc:format>image/svg+xml</dc:format>
        <dc:type
           rdf:resource="http://purl.org/dc/dcmitype/StillImage" />
        <dc:title />
      </cc:Work>
    </rdf:RDF>
  </metadata>
  <g
     id="g32">
    <g
       fill="#0ea6c6"
       id="g16">
      <path
         d="m534.74 98.168c-6.5006-1.4125-18.971-7.3897-21.694-10.398-1.4421-1.5935-1.4397-2.5116 0.027-10.419 1.0841-5.8438 2.051-8.6717 2.9653-8.6717 0.7461 0 4.1875 1.5561 7.6475 3.4579 7.132 3.9202 18.8 6.9876 23.219 6.1039 3.892-0.77839 7.5593-4.311 7.5593-7.2816 0-3.5573-3.642-6.5294-12.512-10.211-18.982-7.878-25.309-12.343-29.136-20.562-2.714-5.828-3.1359-14.694-0.9485-19.929 4.249-10.169 17.071-18.183 32.114-20.072 9.9371-1.2477 25.801 3.9431 34.437 11.268l3.4541 2.9298-4.3303 7.1669c-2.3817 3.9418-4.7397 7.4199-5.24 7.7291-0.5004 0.30922-3.0311-0.78773-5.6238-2.4377-5.9263-3.7713-15.429-6.5696-19.526-5.7501-3.9586 0.79173-7.6879 4.2897-7.6879 7.211 0 3.0362 4.5736 6.3022 14.5 10.354 22.551 9.2061 29.68 16.476 29.811 30.401 0.1376 14.619-11.714 26.094-30.664 29.688-6.4036 1.2144-10.75 1.0776-18.371-0.57836z"
         id="path6" />
      <path
         d="m596.71 49.929 0.2597-47.75 8.3469-0.292c5.0673-0.17728 8.8714 0.14324 9.6817 0.81578 0.7342 0.60928 5.9152 8.2782 11.513 17.042s10.75 15.934 11.448 15.934 6.2624-7.65 12.365-17l11.096-17h8.4892c7.1191 0 8.6158 0.28243 9.2743 1.75 0.4318 0.9625 0.6638 22.577 0.5154 48.033l-0.2697 46.283-22.46-0.56513-0.2729-18.973c-0.1501-10.435-0.6584-19.358-1.1296-19.83-0.4755-0.47554-4.0577 4.7398-8.052 11.723-8.7244 15.253-10.027 15.842-15.076 6.8295-7.6895-13.725-11.183-19.37-11.681-18.872-0.293 0.29301-0.4551 8.5567-0.3601 18.364 0.095 9.807-0.1233 18.602-0.4849 19.545-0.5678 1.4795-2.2154 1.7136-12.06 1.7136h-11.403z"
         id="path8" />
      <path
         d="m739.22 0.017578c-16.244-0.012983-31.635 8.6508-38.568 23.443l-2.6797 5.7188-0.59766 68.555 28.598-0.55469 1-29h12 12l1 29h14 14v-34-34l-2.873-6.2227c-3.4656-7.5029-11.348-15.347-18.875-18.785-6.1618-2.8149-12.648-4.1492-19.004-4.1543zm-0.16992 20.83c0.5439 0.015515 1.1061 0.063168 1.6836 0.14062 7.9688 1.0688 11.071 7.0041 10.553 20.191l-0.31445 8-11.553 0.2793c-6.3543 0.15401-11.867-0.032835-12.25-0.41602-0.3832-0.38319-0.68779-4.3354-0.67579-8.7812 0.03516-12.935 4.398-19.647 12.557-19.414z"
         id="path10" />
      <path
         d="m831.19 1.8789c-2.9976-0.015523-6.1492-0.005765-9.3008 0.03125l-22.92 0.26953-0.25977 47.777-0.25976 47.777 28.52-0.55469 0.2793-14.432c0.1652-8.5588 0.72239-14.968 1.3711-15.75 1.3844-1.6681 5.9848-1.7075 8.0156-0.068359 0.8518 0.6875 5.7403 6.425 10.863 12.75 5.1229 6.325 10.677 12.962 12.34 14.75l3.0234 3.25h15.805c8.6921 0 15.803-0.30311 15.803-0.67383 0-0.37071-2.6097-3.8582-5.7988-7.75-16.205-19.775-22.201-27.4-22.201-28.225 0-0.49937 2.7629-3.339 6.1387-6.3105 8.1756-7.1964 11.245-13.668 10.682-22.518-0.305-4.7902-1.1165-7.4705-3.3711-11.117-5.6952-9.2118-16.811-16.062-30.029-18.506-2.0954-0.38749-9.7063-0.6546-18.699-0.70117zm2.7129 15.85c2.4764-0.01578 5.4226 0.33839 8.0449 1.0664 7.8981 2.1927 13.903 11.25 12.133 18.301-0.935 3.7252-5.5841 8.6653-10.07 10.703-3.9413 1.7903-14.492 2.5963-15.875 1.2129-1.2457-1.2457-0.7575-28.842 0.5332-30.133 0.7495-0.7495 2.758-1.1346 5.2344-1.1504z"
         id="path12" />
      <path
         d="m917.95 96.458c-0.2629-0.70309-0.5911-18.153-0.7294-38.778l-0.2515-37.5-28-1v-17l86.5-0.52124v8.4036c0 6.7405-0.3131 8.5238-1.5818 9.0106-0.87 0.33385-7.17 0.60699-14 0.60699s-12.517 0.1125-12.638 0.25-0.4586 17.575-0.75 38.75l-0.5298 38.5-13.77 0.27835c-10.468 0.2116-13.885-0.0282-14.249-1z"
         id="path14" />
    </g>
    <g
       fill="#f9a33e"
       id="g30">
      <path
         d="m364.58 2.0273c-15.056 0.21431-29.294 10.377-35.076 27.541-9.2031 27.319 12.063 56.58 38.963 53.611 12.086-1.3337 11.546-1.4538 11.156 2.5-1.2371 12.561-16.307 16.835-32.518 9.2227-3.7743-1.7723-7.18-3.2227-7.5664-3.2227-1.004 0-4.0723 6.7164-4.0723 8.9141 0 3.6954 13.027 11.299 23.402 13.66 8.7666 1.9947 18.627 1.058 26.221-2.4902 8.3871-3.9192 13.753-9.0726 17.617-16.92l3.2598-6.6191v-42.021-42.023l-2.5547-0.29883c-1.8209-0.21209-3.8774 0.86558-7.1543 3.75-2.5291 2.2262-4.9331 4.0488-5.3418 4.0488s-3.1154-1.575-6.0156-3.5c-6.4644-4.2908-13.477-6.2498-20.32-6.1523zm4.2891 19.707c1.6389 0.085658 3.3241 0.72849 4.9902 2.0391 4.9667 3.9068 7.0312 9.4561 7.0312 18.906 0 9.4501-2.0646 14.998-7.0312 18.904-6.1282 4.8204-14.123 0.26817-17.018-9.6895-4.3093-14.823 3.1773-30.623 12.027-30.16z"
         id="path18" />
      <path
         d="m424.84 114.21c-0.3095-0.80671 4.4296-11.19 10.531-23.073 6.1019-11.883 11.094-22.323 11.094-23.199 0-0.8761-6.975-15.233-15.5-31.904-8.525-16.671-15.5-30.784-15.5-31.362 0-0.69737 4.6276-0.9575 13.75-0.77292l13.75 0.27822 8.5781 16.5c4.7863 9.2066 9.1875 16.5 9.9567 16.5 0.7671 0 4.9468-6.8889 9.4219-15.529 4.4238-8.541 8.4073-16.078 8.8523-16.75 0.568-0.85728 4.6844-1.221 13.82-1.221 11.846 0 12.982 0.15663 12.691 1.75-0.1757 0.9625-9.5013 19.75-20.724 41.75-31.356 61.469-33.134 64.877-34.825 66.75-1.3366 1.4797-3.4152 1.75-13.457 1.75-9.5147 0-11.988-0.29168-12.439-1.4668z"
         id="path20" />
      <path
         d="m42.912 1.9082c-2.1219 0.0013835-4.2762 0.16395-6.4473 0.5-19.298 2.9871-33.016 16.117-35.936 34.395-3.3108 20.725 9.1799 39.366 30.037 44.828 12.708 3.328 25.928 2.1102 36.779-3.3887 5.4868-2.7804 11.123-7.2306 11.123-8.7812 0-1.1362-6.586-8.8145-8.6172-10.047-0.7083-0.42979-2.9753 0.12662-5.168 1.2695-2.1484 1.1198-6.3379 2.5394-9.3105 3.1543-12.468 2.5793-26.509-4.4912-27.186-13.689l-0.21875-2.9688 25.918-0.26758c18.371-0.18941 26.34-0.61824 27.367-1.4707 1.1029-0.91532 1.3421-2.8949 0.99609-8.2871-1.2937-20.158-18.826-35.259-39.338-35.246zm0.91406 17.045c1.7048 0.0525 3.4029 0.46812 5.0547 1.252 3.833 1.8189 7.1233 6.6359 6.1914 9.0645-0.4234 1.1034-3.12 1.4102-12.406 1.4102-6.5256 0-12.146-0.28222-12.49-0.62695-1.0675-1.0676 2.1102-6.1059 5.2695-8.3555 2.6822-1.91 5.5395-2.8316 8.3809-2.7441z"
         id="path22" />
      <path
         d="m220.61 1.8594c-2.5179 0.0051716-5.0755 0.23584-7.6445 0.70703-8.8147 1.6167-19.565 7.2531-24.574 12.885-14.19 15.953-14.018 40.225 0.39063 55.025 5.5977 5.7501 11.229 8.9117 19.943 11.195 15.892 4.1644 32.113 1.1376 43.99-8.209 2.0625-1.623 3.7301-3.4759 3.7051-4.1172-0.0247-0.64128-2.0376-3.3898-4.4727-6.1074l-4.4277-4.9414-4.4668 2.2305c-2.4573 1.2272-6.8569 2.7261-9.7773 3.3301-12.372 2.5587-26.418-4.5487-27.092-13.709l-0.21875-2.9688 25.918-0.26758c17.076-0.17605 26.373-0.6449 27.25-1.373 1.8134-1.505 1.6889-9.2769-0.25586-15.928-4.9074-16.782-20.642-27.788-38.268-27.752zm0.85547 16.82c5.5768 0 13.06 6.7949 11.619 10.551-0.4424 1.1527-3 1.4492-12.529 1.4492-7.2336-1e-6 -12.228-0.41268-12.617-1.043-1.7777-2.8763 8.1986-10.957 13.527-10.957z"
         id="path24" />
      <path
         d="m92.937 80.456c-0.2709-0.70597-0.3745-18.157-0.2302-38.78l0.2625-37.496 2.5951-0.30148c1.8664-0.21682 4.164 0.97655 8.1826 4.25 3.073 2.5033 6.0638 4.5515 6.6462 4.5515 0.5823 0 3.0591-1.5269 5.5039-3.393 6.6829-5.1012 12.838-7.1151 21.572-7.0579 12.142 0.0795 20.418 3.6185 26.28 11.237 5.1932 6.7497 5.7802 11.113 5.4866 40.777l-0.2667 26.937h-26l-0.5-26.047c-0.4349-22.653-0.7297-26.397-2.2627-28.734-3.4443-5.2502-12.041-4.7966-17.432 0.91971l-3.2707 3.468-0.2671 25.197-0.267 25.197-12.77 0.28003c-9.6788 0.21224-12.889-0.0307-13.262-1.0036z"
         id="path26" />
      <path
         d="m270.93 80.426c-0.2646-0.68946-0.363-18.127-0.2187-38.75l0.2625-37.496 2.7786-0.31918c2.0798-0.23892 4.0578 0.75191 7.8658 3.9401 5.0162 4.1997 5.1242 4.2358 7.7215 2.5786 11.241-7.1726 23.884-10.404 28.605-7.3107l2.5294 1.6573v19.942c0 17.976-0.1725 20.032-1.75 20.859-2.7054 1.4176-5.178-0.0861-12.675-7.7082-3.8085-3.8723-7.296-6.811-7.75-6.5305-0.4539 0.28055-0.8253 11.734-0.8253 25.451v24.941h-13.031c-9.5223 0-13.161-0.33755-13.512-1.2536z"
         id="path28" />
    </g>
  </g>
</svg>
