<?xml version="1.0" encoding="UTF-8" standalone="no"?>
<!-- Created with Inkscape (http://www.inkscape.org/) -->

<svg
   xmlns:dc="http://purl.org/dc/elements/1.1/"
   xmlns:cc="http://creativecommons.org/ns#"
   xmlns:rdf="http://www.w3.org/1999/02/22-rdf-syntax-ns#"
   xmlns:svg="http://www.w3.org/2000/svg"
   xmlns="http://www.w3.org/2000/svg"
   xmlns:sodipodi="http://sodipodi.sourceforge.net/DTD/sodipodi-0.dtd"
   xmlns:inkscape="http://www.inkscape.org/namespaces/inkscape"
   width="975.47"
   height="115.68"
   version="1.1"
   viewBox="0 0 975.47 115.68"
   id="svg48"
   sodipodi:docname="ESLogoSVG.svg"
   inkscape:version="0.92.4 5da689c313, 2019-01-14">
  <defs
     id="defs52" />
  <sodipodi:namedview
     pagecolor="#ffffff"
     bordercolor="#666666"
     borderopacity="1"
     objecttolerance="10"
     gridtolerance="10"
     guidetolerance="10"
     inkscape:pageopacity="0"
     inkscape:pageshadow="2"
     inkscape:window-width="1900"
     inkscape:window-height="1021"
     id="namedview50"
     showgrid="false"
     inkscape:zoom="0.11313708"
     inkscape:cx="-8733.9802"
     inkscape:cy="1676.156"
     inkscape:window-x="1060"
     inkscape:window-y="328"
     inkscape:window-maximized="0"
     inkscape:current-layer="g46" />
  <metadata
     id="metadata2">
    <rdf:RDF>
      <cc:Work
         rdf:about="">
        <dc:format>image/svg+xml</dc:format>
        <dc:type
           rdf:resource="http://purl.org/dc/dcmitype/StillImage" />
        <dc:title />
      </cc:Work>
    </rdf:RDF>
  </metadata>
  <g
     id="g46">
    <path
       d="m358.87 114.25c-10.375-2.3607-23.402-9.9644-23.402-13.66 0-2.1976 3.0689-8.9152 4.0729-8.9152 0.3864 0 3.7905 1.45 7.5648 3.2223 16.211 7.6121 31.28 3.3382 32.518-9.2223 0.3895-3.9538 0.9313-3.8325-11.155-2.4988-26.9 2.9683-48.166-26.293-38.963-53.611 8.4102-24.965 34.711-35.12 55.397-21.39 2.9002 1.9251 5.6074 3.5001 6.0161 3.5001s2.8123-1.8214 5.3414-4.0476c3.2769-2.8844 5.3326-3.9621 7.1535-3.75l2.5551 0.29761v84.046l-3.2597 6.6194c-3.8644 7.8473-9.2299 13-17.617 16.92-7.5933 3.5483-17.455 4.4848-26.222 2.4901zm14.991-52.67c4.9667-3.9068 7.0299-9.4553 7.0299-18.905 0-9.4501-2.0632-14.999-7.0299-18.905-10.663-8.3877-22.126 10.553-17.019 28.122 2.8948 9.9576 10.89 14.51 17.019 9.6894zm50.981 52.628c-0.3095-0.80671 4.4296-11.19 10.531-23.073 6.1019-11.883 11.094-22.323 11.094-23.199 0-0.8761-6.975-15.233-15.5-31.904-8.525-16.671-15.5-30.784-15.5-31.362 0-0.69737 4.6276-0.9575 13.75-0.77292l13.75 0.27822 8.5781 16.5c4.7863 9.2066 9.1875 16.5 9.9567 16.5 0.7671 0 4.9468-6.8889 9.4219-15.529 4.4238-8.541 8.4073-16.078 8.8523-16.75 0.568-0.85728 4.6844-1.221 13.82-1.221 11.846 0 12.982 0.15663 12.691 1.75-0.1757 0.9625-9.5013 19.75-20.724 41.75-31.356 61.469-33.134 64.877-34.825 66.75-1.3366 1.4797-3.4152 1.75-13.457 1.75-9.5147 0-11.988-0.29168-12.439-1.4668zm109.9-16.045c-6.5006-1.4125-18.971-7.3897-21.694-10.398-1.4421-1.5935-1.4397-2.5116 0.027-10.419 1.0841-5.8438 2.051-8.6717 2.9653-8.6717 0.7461 0 4.1875 1.5561 7.6475 3.4579 7.132 3.9202 18.8 6.9876 23.219 6.1039 3.892-0.77839 7.5593-4.311 7.5593-7.2816 0-3.5573-3.642-6.5294-12.512-10.211-18.982-7.878-25.309-12.343-29.136-20.562-2.714-5.828-3.1359-14.694-0.9485-19.929 4.249-10.169 17.071-18.183 32.114-20.072 9.9371-1.2477 25.801 3.9431 34.437 11.268l3.4541 2.9298-4.3303 7.1669c-2.3817 3.9418-4.7397 7.4199-5.24 7.7291-0.5004 0.30922-3.0311-0.78773-5.6238-2.4377-5.9263-3.7713-15.429-6.5696-19.526-5.7501-3.9586 0.79173-7.6879 4.2897-7.6879 7.211 0 3.0362 4.5736 6.3022 14.5 10.354 22.551 9.2061 29.68 16.476 29.811 30.401 0.1376 14.619-11.714 26.094-30.664 29.688-6.4036 1.2144-10.75 1.0776-18.371-0.57836zm61.965-48.239 0.2597-47.75 8.3469-0.292c5.0673-0.17728 8.8714 0.14324 9.6817 0.81578 0.7342 0.60928 5.9152 8.2782 11.513 17.042s10.75 15.934 11.448 15.934 6.2624-7.65 12.365-17l11.096-17h8.4892c7.1191 0 8.6158 0.28243 9.2743 1.75 0.4318 0.9625 0.6638 22.577 0.5154 48.033l-0.2697 46.283-22.46-0.56513-0.2729-18.973c-0.1501-10.435-0.6584-19.358-1.1296-19.83-0.4755-0.47554-4.0577 4.7398-8.052 11.723-8.7244 15.253-10.027 15.842-15.076 6.8295-7.6895-13.725-11.183-19.37-11.681-18.872-0.293 0.29301-0.4551 8.5567-0.3601 18.364 0.095 9.807-0.1233 18.602-0.4849 19.545-0.5678 1.4795-2.2154 1.7136-12.06 1.7136h-11.403zm100.96 13.528 0.299-34.278 2.68-5.7181c9.6463-20.581 35.664-29.298 57.573-19.29 7.5268 3.4384 15.408 11.283 18.873 18.785l2.8742 6.2224v68h-28l-1-29h-24l-1 29-28.598 0.55551zm53.613-22.278c0.5179-13.187-2.5844-19.123-10.553-20.192-9.2398-1.2393-14.202 5.4773-14.239 19.275-0.012 4.4458 0.2916 8.3968 0.6748 8.78 0.3832 0.38318 5.8957 0.57068 12.25 0.41667l11.553-0.28004zm47.426 8.7775 0.2597-47.778 22.92-0.26921c12.606-0.14806 25.206 0.1535 28 0.67015 13.218 2.4443 24.333 9.2942 30.028 18.506 2.2546 3.6467 3.0674 6.3259 3.3724 11.116 0.5635 8.8498-2.5071 15.323-10.683 22.519-3.3758 2.9715-6.1378 5.8114-6.1378 6.3107 0 0.82456 5.9967 8.4477 22.202 28.223 3.1891 3.8918 5.7984 7.3793 5.7984 7.75 0 0.37072-7.1118 0.67403-15.804 0.67403h-15.804l-3.0241-3.25c-1.6633-1.7875-7.2157-8.425-12.339-14.75-5.123-6.325-10.011-12.062-10.863-12.75-2.0308-1.6391-6.631-1.6001-8.0154 0.068-0.6487 0.78166-1.2073 7.1912-1.3725 15.75l-0.2785 14.432-28.52 0.55503zm45.301-2.1572c4.4862-2.0378 9.134-6.9787 10.069-10.704 1.7697-7.0512-4.2348-16.108-12.133-18.301-5.2446-1.456-11.778-1.4144-13.277 0.0846-1.2907 1.2906-1.7791 28.888-0.5334 30.133 1.3835 1.3834 11.933 0.57732 15.875-1.213zm73.94 48.658c-0.2629-0.70309-0.5911-18.153-0.7294-38.778l-0.2515-37.5-28-1v-17l86.5-0.52124v8.4036c0 6.7405-0.3131 8.5238-1.5818 9.0106-0.87 0.33385-7.17 0.60699-14 0.60699s-12.517 0.1125-12.638 0.25-0.4586 17.575-0.75 38.75l-0.5298 38.5-13.77 0.27835c-10.468 0.2116-13.885-0.0282-14.249-1zm-887.38-14.827c-20.857-5.4619-33.348-24.104-30.037-44.828 2.9198-18.278 16.638-31.407 35.936-34.394 23.158-3.5845 44.356 12.503 45.784 34.747 0.346 5.3922 0.1084 7.3722-0.9945 8.2875-1.0271 0.85246-8.9961 1.2805-27.367 1.4699l-25.918 0.26722 0.2182 2.969c0.6762 9.1982 14.718 16.269 27.186 13.69 2.9726-0.61491 7.1624-2.0342 9.3108-3.154 2.1927-1.1429 4.4598-1.7002 5.1681-1.2704 2.0312 1.2324 8.6165 8.9117 8.6165 10.048 0 1.5506-5.6366 5.9998-11.123 8.7802-10.852 5.4988-24.07 6.7169-36.779 3.3889zm24.506-52.361c0.9319-2.4286-2.3585-7.246-6.1915-9.0649-4.4048-2.0902-9.1452-1.5638-13.437 1.4921-3.1593 2.2496-6.3364 7.2882-5.2689 8.3557 0.3447 0.34473 5.9659 0.62678 12.492 0.62678 9.2863 0 11.982-0.30636 12.406-1.4097zm153.66 52.402c-8.7144-2.2836-14.345-5.4444-19.943-11.194-14.408-14.801-14.581-39.073-0.3905-55.026 5.0093-5.6317 15.76-11.269 24.575-12.885 20.552-3.7696 40.303 7.8648 45.912 27.044 1.9448 6.6509 2.07 14.424 0.2566 15.929-0.8774 0.72815-10.174 1.1964-27.25 1.3724l-25.918 0.26722 0.2182 2.969c0.6734 9.1603 14.72 16.268 27.092 13.71 2.9204-0.60398 7.3204-2.1023 9.7777-3.3295l4.4678-2.2313 4.4275 4.9411c2.4351 2.7176 4.4476 5.4658 4.4723 6.1071 0.025 0.64129-1.6427 2.4939-3.7052 4.1169-11.877 9.3465-28.099 12.374-43.991 8.2095zm24.36-52.441c1.4412-3.7559-6.0417-10.552-11.618-10.552-5.3287 0-15.304 8.0805-13.527 10.957 0.3895 0.63029 5.3835 1.0432 12.617 1.0432 9.5293 0 12.086-0.29551 12.528-1.4482zm-140.15 51.225c-0.2709-0.70597-0.3745-18.157-0.2302-38.78l0.2625-37.496 2.5951-0.30148c1.8664-0.21682 4.164 0.97655 8.1826 4.25 3.073 2.5033 6.0638 4.5515 6.6462 4.5515 0.5823 0 3.0591-1.5269 5.5039-3.393 6.6829-5.1012 12.838-7.1151 21.572-7.0579 12.142 0.0795 20.418 3.6185 26.28 11.237 5.1932 6.7497 5.7802 11.113 5.4866 40.777l-0.2667 26.937h-26l-0.5-26.047c-0.4349-22.653-0.7297-26.397-2.2627-28.734-3.4443-5.2502-12.041-4.7966-17.432 0.91971l-3.2707 3.468-0.2671 25.197-0.267 25.197-12.77 0.28003c-9.6788 0.21224-12.889-0.0307-13.262-1.0036zm177.99-0.03c-0.2646-0.68946-0.363-18.127-0.2187-38.75l0.2625-37.496 2.7786-0.31918c2.0798-0.23892 4.0578 0.75191 7.8658 3.9401 5.0162 4.1997 5.1242 4.2358 7.7215 2.5786 11.241-7.1726 23.884-10.404 28.605-7.3107l2.5294 1.6573v19.942c0 17.976-0.1725 20.032-1.75 20.859-2.7054 1.4176-5.178-0.0861-12.675-7.7082-3.8085-3.8723-7.296-6.811-7.75-6.5305-0.4539 0.28055-0.8253 11.734-0.8253 25.451v24.941h-13.031c-9.5223 0-13.161-0.33755-13.512-1.2536z"
       id="path6" />
  </g>
</svg>
